<?xml version="1.0" standalone="no"?><!DOCTYPE svg PUBLIC "-//W3C//DTD SVG 1.1//EN" "http://www.w3.org/Graphics/SVG/1.1/DTD/svg11.dtd"><svg t="1715915363112" class="icon" viewBox="0 0 1024 1024" version="1.1" xmlns="http://www.w3.org/2000/svg" p-id="6765" xmlns:xlink="http://www.w3.org/1999/xlink" width="200" height="200"><path d="M1019.473606 967.481902v-69.318147c0-142.151736-251.993354-180.917486-251.993353-180.917485H258.763677s-255.66859 38.76575-255.66859 180.917485v69.318147s-0.575254 52.284227 81.654156 54.041948 428.820142 0 428.820142 0 344.801052 1.757722 427.06242 0 78.841801-54.041948 78.841801-54.041948z" fill="#2985E9" p-id="6766"></path><path d="M602.41422 707.243236h-87.534534l-256.116009 5.273165s-255.66859 44.070873-255.66859 186.222609v69.318146s-0.575254 52.284227 81.654156 54.041948a350.425761 350.425761 0 0 0 82.836623-1.182467l250.235632-190.313307h184.464887z" fill="#246EBE" p-id="6767"></path><path d="M361.574408 560.39359h305.460048v187.98033h-305.460048z" fill="#C7928E" p-id="6768"></path><path d="M798.639862 292.548784a170.307239 170.307239 0 0 1-67.113005 189.738052V269.634486z m-586.248076 0s-21.156576 118.662184 67.113005 189.738052V269.634486z" fill="#333333" p-id="6769"></path><path d="M279.344998 270.816954v216.743046s51.708972 186.797863 236.141901 186.797864 233.776967-190.313306 233.776967-190.313307V286.093152S761.024621 4.122656 515.486899 4.122656 279.344998 270.816954 279.344998 270.816954z" fill="#FECCCB" p-id="6770"></path><path d="M514.336391 674.357864c-182.16387 0-234.959434-186.797863-234.959434-186.797864V270.784995S267.616202 3.515443 514.336391 3.515443z" fill="#D8AEAF" p-id="6771"></path><path d="M413.858635 156.85268s39.341004 156.85268 403.572869 156.852679c0 0-5.880378-313.673401-301.944605-313.6734S210.026852 313.705359 210.026852 313.705359a388.871925 388.871925 0 0 0 203.831783-156.852679z" fill="#2B2B2B" p-id="6772"></path><path d="M356.301244 615.042751l-96.930354 101.021051 158.610401 117.479717 100.445797-79.289221z" fill="#B6D5D0" p-id="6773"></path><path d="M669.974645 615.042751l96.930354 101.021051-158.003189 117.479717-101.021051-79.289221z" fill="#B6D5D0" p-id="6774"></path></svg>